<svg width="185" height="75" viewBox="0 0 185 75" fill="none" xmlns="http://www.w3.org/2000/svg">
<path d="M134.016 30.0841C134.016 48.3425 106.366 63.1439 72.257 63.1439C38.1485 63.1439 0 53.3017 0 35.0433C205.04 142.157 138.816 0 172.924 0C207.033 0 134.016 11.8257 134.016 30.0841Z" fill="#A584C5"/>
<path d="M35.2852 25.082L27.5117 51H23.8398L33 22.5625H35.3047L35.2852 25.082ZM41.5742 51L33.8008 25.082L33.7617 22.5625H36.0859L45.2461 51H41.5742ZM41.5742 40.4727V43.5586H27.8633V40.4727H41.5742ZM56.0078 48.4414C56.6979 48.4414 57.3229 48.3047 57.8828 48.0312C58.4557 47.7448 58.9245 47.3021 59.2891 46.7031C59.6536 46.0911 59.862 45.2969 59.9141 44.3203H63.1562C63.1042 45.7266 62.7461 46.9635 62.082 48.0312C61.431 49.0859 60.5716 49.9128 59.5039 50.5117C58.4492 51.0977 57.2839 51.3906 56.0078 51.3906C54.6406 51.3906 53.4492 51.1693 52.4336 50.7266C51.431 50.2839 50.5977 49.6458 49.9336 48.8125C49.2826 47.9661 48.7943 46.944 48.4688 45.7461C48.1432 44.5352 47.9805 43.1615 47.9805 41.625V39.2422C47.9805 37.7057 48.1432 36.3385 48.4688 35.1406C48.7943 33.9297 49.2826 32.9076 49.9336 32.0742C50.5977 31.2279 51.431 30.5833 52.4336 30.1406C53.4492 29.6979 54.6406 29.4766 56.0078 29.4766C57.4401 29.4766 58.6771 29.7826 59.7188 30.3945C60.7734 30.9935 61.5938 31.8659 62.1797 33.0117C62.7786 34.1445 63.1042 35.5182 63.1562 37.1328H59.9141C59.862 36.0911 59.6732 35.2253 59.3477 34.5352C59.0221 33.832 58.5794 33.3112 58.0195 32.9727C57.4596 32.6211 56.7891 32.4453 56.0078 32.4453C55.0964 32.4453 54.3411 32.6081 53.7422 32.9336C53.1562 33.2461 52.694 33.7018 52.3555 34.3008C52.0169 34.8997 51.776 35.6159 51.6328 36.4492C51.5026 37.2826 51.4375 38.2135 51.4375 39.2422V41.625C51.4375 42.6536 51.5026 43.5911 51.6328 44.4375C51.776 45.2708 52.0104 45.987 52.3359 46.5859C52.6745 47.1849 53.1432 47.6471 53.7422 47.9727C54.3411 48.2852 55.0964 48.4414 56.0078 48.4414ZM74.4844 48.4414C75.1745 48.4414 75.7995 48.3047 76.3594 48.0312C76.9323 47.7448 77.401 47.3021 77.7656 46.7031C78.1302 46.0911 78.3385 45.2969 78.3906 44.3203H81.6328C81.5807 45.7266 81.2227 46.9635 80.5586 48.0312C79.9076 49.0859 79.0482 49.9128 77.9805 50.5117C76.9258 51.0977 75.7604 51.3906 74.4844 51.3906C73.1172 51.3906 71.9258 51.1693 70.9102 50.7266C69.9076 50.2839 69.0742 49.6458 68.4102 48.8125C67.7591 47.9661 67.2708 46.944 66.9453 45.7461C66.6198 44.5352 66.457 43.1615 66.457 41.625V39.2422C66.457 37.7057 66.6198 36.3385 66.9453 35.1406C67.2708 33.9297 67.7591 32.9076 68.4102 32.0742C69.0742 31.2279 69.9076 30.5833 70.9102 30.1406C71.9258 29.6979 73.1172 29.4766 74.4844 29.4766C75.9167 29.4766 77.1536 29.7826 78.1953 30.3945C79.25 30.9935 80.0703 31.8659 80.6562 33.0117C81.2552 34.1445 81.5807 35.5182 81.6328 37.1328H78.3906C78.3385 36.0911 78.1497 35.2253 77.8242 34.5352C77.4987 33.832 77.056 33.3112 76.4961 32.9727C75.9362 32.6211 75.2656 32.4453 74.4844 32.4453C73.5729 32.4453 72.8177 32.6081 72.2188 32.9336C71.6328 33.2461 71.1706 33.7018 70.832 34.3008C70.4935 34.8997 70.2526 35.6159 70.1094 36.4492C69.9792 37.2826 69.9141 38.2135 69.9141 39.2422V41.625C69.9141 42.6536 69.9792 43.5911 70.1094 44.4375C70.2526 45.2708 70.487 45.987 70.8125 46.5859C71.151 47.1849 71.6198 47.6471 72.2188 47.9727C72.8177 48.2852 73.5729 48.4414 74.4844 48.4414ZM84.9141 41.4492V39.4375C84.9141 37.7969 85.1224 36.3581 85.5391 35.1211C85.9557 33.8711 86.5352 32.8294 87.2773 31.9961C88.0195 31.1628 88.8854 30.5378 89.875 30.1211C90.8646 29.6914 91.9258 29.4766 93.0586 29.4766C94.2174 29.4766 95.2917 29.6914 96.2812 30.1211C97.2708 30.5378 98.1367 31.1628 98.8789 31.9961C99.6341 32.8294 100.22 33.8711 100.637 35.1211C101.053 36.3581 101.262 37.7969 101.262 39.4375V41.4492C101.262 43.0898 101.053 44.5352 100.637 45.7852C100.22 47.0221 99.6406 48.0573 98.8984 48.8906C98.1562 49.724 97.2904 50.349 96.3008 50.7656C95.3112 51.1823 94.2435 51.3906 93.0977 51.3906C91.9518 51.3906 90.8841 51.1823 89.8945 50.7656C88.9049 50.349 88.0326 49.724 87.2773 48.8906C86.5352 48.0573 85.9557 47.0221 85.5391 45.7852C85.1224 44.5352 84.9141 43.0898 84.9141 41.4492ZM88.3711 39.4375V41.4492C88.3711 42.6081 88.4883 43.6237 88.7227 44.4961C88.957 45.3685 89.2891 46.0977 89.7188 46.6836C90.1484 47.2695 90.6497 47.7122 91.2227 48.0117C91.7956 48.2982 92.4206 48.4414 93.0977 48.4414C93.8789 48.4414 94.5625 48.2982 95.1484 48.0117C95.7474 47.7122 96.2422 47.2695 96.6328 46.6836C97.0234 46.0977 97.3164 45.3685 97.5117 44.4961C97.707 43.6237 97.8047 42.6081 97.8047 41.4492V39.4375C97.8047 38.2786 97.6875 37.2695 97.4531 36.4102C97.2188 35.5378 96.8867 34.8086 96.457 34.2227C96.0273 33.6237 95.5195 33.181 94.9336 32.8945C94.3607 32.5951 93.7357 32.4453 93.0586 32.4453C92.3945 32.4453 91.776 32.5951 91.2031 32.8945C90.6302 33.181 90.1289 33.6237 89.6992 34.2227C89.2826 34.8086 88.957 35.5378 88.7227 36.4102C88.4883 37.2695 88.3711 38.2786 88.3711 39.4375ZM109.172 33.1875V51H105.715V29.8672H109.055L109.172 33.1875ZM114.426 29.75L114.445 33.1094C114.159 33.0443 113.898 33.0052 113.664 32.9922C113.443 32.9661 113.182 32.9531 112.883 32.9531C112.232 32.9531 111.659 33.0833 111.164 33.3438C110.682 33.6042 110.266 33.9688 109.914 34.4375C109.562 34.9062 109.283 35.4661 109.074 36.1172C108.866 36.7552 108.723 37.4583 108.645 38.2266L107.746 38.8125C107.746 37.5365 107.844 36.3385 108.039 35.2188C108.247 34.099 108.566 33.1094 108.996 32.25C109.426 31.3776 109.973 30.7005 110.637 30.2188C111.314 29.724 112.121 29.4766 113.059 29.4766C113.267 29.4766 113.521 29.5091 113.82 29.5742C114.133 29.6263 114.335 29.6849 114.426 29.75ZM128.586 46.8984V21H132.023V51H128.879L128.586 46.8984ZM116.77 41.4492V39.4766C116.77 37.7318 116.939 36.2344 117.277 34.9844C117.616 33.7214 118.098 32.6862 118.723 31.8789C119.348 31.0586 120.096 30.4531 120.969 30.0625C121.841 29.6719 122.805 29.4766 123.859 29.4766C124.953 29.4766 125.891 29.6979 126.672 30.1406C127.466 30.5833 128.13 31.2279 128.664 32.0742C129.198 32.9076 129.615 33.9232 129.914 35.1211C130.227 36.306 130.435 37.6471 130.539 39.1445V41.7812C130.422 43.2656 130.207 44.6003 129.895 45.7852C129.595 46.9701 129.178 47.9792 128.645 48.8125C128.111 49.6458 127.447 50.2839 126.652 50.7266C125.858 51.1693 124.914 51.3906 123.82 51.3906C122.779 51.3906 121.828 51.1888 120.969 50.7852C120.109 50.3685 119.361 49.75 118.723 48.9297C118.098 48.0964 117.616 47.0612 117.277 45.8242C116.939 44.5742 116.77 43.1159 116.77 41.4492ZM120.227 39.4766V41.4492C120.227 42.6211 120.311 43.6432 120.48 44.5156C120.65 45.375 120.917 46.0911 121.281 46.6641C121.646 47.224 122.108 47.6406 122.668 47.9141C123.241 48.1875 123.924 48.3242 124.719 48.3242C125.682 48.3242 126.47 48.0898 127.082 47.6211C127.694 47.1523 128.182 46.5339 128.547 45.7656C128.924 44.9844 129.224 44.1445 129.445 43.2461V37.6992C129.315 37.0352 129.126 36.3971 128.879 35.7852C128.632 35.1602 128.319 34.6068 127.941 34.125C127.577 33.6302 127.128 33.2396 126.594 32.9531C126.073 32.6667 125.461 32.5234 124.758 32.5234C123.964 32.5234 123.273 32.6667 122.688 32.9531C122.115 33.2396 121.646 33.6693 121.281 34.2422C120.93 34.8151 120.663 35.5378 120.48 36.4102C120.311 37.2826 120.227 38.3047 120.227 39.4766ZM141.066 29.8672V51H137.629V29.8672H141.066ZM137.434 24.2617C137.434 23.6758 137.596 23.181 137.922 22.7773C138.247 22.3737 138.736 22.1719 139.387 22.1719C140.038 22.1719 140.526 22.3737 140.852 22.7773C141.19 23.181 141.359 23.6758 141.359 24.2617C141.359 24.8216 141.19 25.3034 140.852 25.707C140.526 26.0977 140.038 26.293 139.387 26.293C138.736 26.293 138.247 26.0977 137.922 25.707C137.596 25.3034 137.434 24.8216 137.434 24.2617ZM145.812 41.4492V39.4375C145.812 37.7969 146.021 36.3581 146.438 35.1211C146.854 33.8711 147.434 32.8294 148.176 31.9961C148.918 31.1628 149.784 30.5378 150.773 30.1211C151.763 29.6914 152.824 29.4766 153.957 29.4766C155.116 29.4766 156.19 29.6914 157.18 30.1211C158.169 30.5378 159.035 31.1628 159.777 31.9961C160.533 32.8294 161.118 33.8711 161.535 35.1211C161.952 36.3581 162.16 37.7969 162.16 39.4375V41.4492C162.16 43.0898 161.952 44.5352 161.535 45.7852C161.118 47.0221 160.539 48.0573 159.797 48.8906C159.055 49.724 158.189 50.349 157.199 50.7656C156.21 51.1823 155.142 51.3906 153.996 51.3906C152.85 51.3906 151.783 51.1823 150.793 50.7656C149.803 50.349 148.931 49.724 148.176 48.8906C147.434 48.0573 146.854 47.0221 146.438 45.7852C146.021 44.5352 145.812 43.0898 145.812 41.4492ZM149.27 39.4375V41.4492C149.27 42.6081 149.387 43.6237 149.621 44.4961C149.855 45.3685 150.188 46.0977 150.617 46.6836C151.047 47.2695 151.548 47.7122 152.121 48.0117C152.694 48.2982 153.319 48.4414 153.996 48.4414C154.777 48.4414 155.461 48.2982 156.047 48.0117C156.646 47.7122 157.141 47.2695 157.531 46.6836C157.922 46.0977 158.215 45.3685 158.41 44.4961C158.605 43.6237 158.703 42.6081 158.703 41.4492V39.4375C158.703 38.2786 158.586 37.2695 158.352 36.4102C158.117 35.5378 157.785 34.8086 157.355 34.2227C156.926 33.6237 156.418 33.181 155.832 32.8945C155.259 32.5951 154.634 32.4453 153.957 32.4453C153.293 32.4453 152.674 32.5951 152.102 32.8945C151.529 33.181 151.027 33.6237 150.598 34.2227C150.181 34.8086 149.855 35.5378 149.621 36.4102C149.387 37.2695 149.27 38.2786 149.27 39.4375ZM170.07 34.3789V51H166.613V29.8672H169.875L170.07 34.3789ZM169.23 39.6328L167.824 39.5742C167.811 38.1289 167.974 36.7943 168.312 35.5703C168.664 34.3333 169.159 33.2591 169.797 32.3477C170.448 31.4362 171.223 30.7331 172.121 30.2383C173.02 29.7305 174.016 29.4766 175.109 29.4766C175.969 29.4766 176.75 29.6198 177.453 29.9062C178.156 30.1797 178.755 30.6224 179.25 31.2344C179.745 31.8464 180.122 32.6406 180.383 33.6172C180.656 34.5807 180.793 35.7591 180.793 37.1523V51H177.336V37.1133C177.336 36.0065 177.212 35.1211 176.965 34.457C176.73 33.7799 176.366 33.2917 175.871 32.9922C175.389 32.6797 174.777 32.5234 174.035 32.5234C173.358 32.5234 172.727 32.7122 172.141 33.0898C171.555 33.4674 171.04 33.9883 170.598 34.6523C170.168 35.3164 169.829 36.0781 169.582 36.9375C169.348 37.7839 169.23 38.6823 169.23 39.6328Z" fill="white"/>
</svg>
